
      <svg data-logo="logo" xmlns="http://www.w3.org/2000/svg" viewBox="0 0 176.2699966430664 42">
        <g id="logogram" transform="
    translate(0, 0.5)
    rotate(0 35.5 20.5)
    
  "><path d="M37.5569 2.04585C38.4821 1.08338 39.7385 0.542663 41.0469 0.542664C46.9335 0.542664 52.4811 0.542667 57.9442 0.542678C68.932 0.542701 74.4342 14.3629 66.6646 22.4456L49.7407 40.0517C48.9637 40.86 47.6352 40.2875 47.6352 39.1444V23.6376L49.591 21.6029C51.145 19.9864 50.0444 17.2223 47.8468 17.2223H22.9684L37.5569 2.04585Z" fill="#3A04FF"/><path d="M33.0467 38.8142C32.1215 39.7767 30.8651 40.3174 29.5567 40.3174C23.6701 40.3174 18.1225 40.3174 12.6594 40.3174C1.67159 40.3173 -3.83061 26.4972 3.93897 18.4144L20.8629 0.808361C21.6399 8.48472e-05 22.9684 0.57254 22.9684 1.71562L22.9684 17.2223L21.0126 19.2571C19.4586 20.8737 20.5592 23.6377 22.7568 23.6377L47.6352 23.6376L33.0467 38.8142Z" fill="#3A04FF"/></g>
        <g id="logotype" transform="translate(77, 7.859999999999999)"><path fill="#111111" d="M7.96 26Q7.79 26 7.66 25.88Q7.54 25.75 7.54 25.58L7.54 25.58L7.54 1.92Q7.54 1.74 7.66 1.62Q7.79 1.50 7.96 1.50L7.96 1.50L12.05 1.50Q12.23 1.50 12.35 1.62Q12.48 1.74 12.48 1.92L12.48 1.92L12.48 25.58Q12.48 25.75 12.35 25.88Q12.23 26 12.05 26L12.05 26L7.96 26ZM23.75 7.73Q26.13 7.73 27.32 9.30Q28.51 10.88 28.51 13.71L28.51 13.71L28.51 25.58Q28.51 25.75 28.38 25.88Q28.26 26 28.09 26L28.09 26L23.99 26Q23.82 26 23.69 25.88Q23.57 25.75 23.57 25.58L23.57 25.58L23.57 14.10Q23.57 13.08 23.17 12.52Q22.77 11.96 22.00 11.96L22.00 11.96Q21.19 11.96 20.75 12.54Q20.32 13.12 20.32 14.17L20.32 14.17L20.32 25.58Q20.32 25.75 20.19 25.88Q20.07 26 19.90 26L19.90 26L15.80 26Q15.63 26 15.50 25.88Q15.38 25.75 15.38 25.58L15.38 25.58L15.38 8.43Q15.38 8.25 15.50 8.13Q15.63 8.01 15.80 8.01L15.80 8.01L19.90 8.01Q20.07 8.01 20.19 8.13Q20.32 8.25 20.32 8.43L20.32 8.43L20.32 9.09Q20.32 9.20 20.40 9.20Q20.49 9.20 20.63 9.06L20.63 9.06Q21.75 7.73 23.75 7.73L23.75 7.73ZM37.05 26.25Q34.07 26.25 32.30 24.83Q30.54 23.41 30.54 21.03L30.54 21.03L30.54 20.79Q30.54 20.61 30.66 20.49Q30.78 20.36 30.96 20.36L30.96 20.36L34.80 20.36Q34.98 20.36 35.10 20.49Q35.23 20.61 35.23 20.79L35.23 20.79L35.23 20.89Q35.23 21.63 35.75 22.10Q36.27 22.57 37.05 22.57L37.05 22.57Q37.75 22.57 38.15 22.17Q38.55 21.77 38.55 21.13L38.55 21.13Q38.55 20.36 37.89 19.93Q37.22 19.49 36.40 19.19Q35.58 18.89 35.26 18.79L35.26 18.79Q33.34 18.09 32.02 16.85Q30.71 15.60 30.71 13.26L30.71 13.26Q30.71 10.70 32.39 9.23Q34.07 7.76 36.87 7.76L36.87 7.76Q39.78 7.76 41.47 9.30Q43.17 10.84 43.17 13.47L43.17 13.47Q43.17 13.64 43.05 13.77Q42.92 13.89 42.75 13.89L42.75 13.89L39.01 13.89Q38.83 13.89 38.71 13.77Q38.59 13.64 38.59 13.47L38.59 13.47L38.59 13.19Q38.59 12.49 38.15 12.05Q37.71 11.61 37.01 11.61L37.01 11.61Q36.27 11.61 35.86 12.09Q35.44 12.56 35.44 13.19L35.44 13.19Q35.44 14.03 36.15 14.50Q36.87 14.97 38.34 15.53L38.34 15.53Q39.84 16.09 40.91 16.67Q41.98 17.25 42.75 18.32Q43.52 19.38 43.52 20.99L43.52 20.99Q43.52 23.41 41.75 24.83Q39.98 26.25 37.05 26.25L37.05 26.25ZM53.64 11.05Q53.64 11.23 53.51 11.35Q53.39 11.47 53.22 11.47L53.22 11.47L51.26 11.47Q51.08 11.47 51.08 11.65L51.08 11.65L51.08 19.98Q51.08 20.99 51.47 21.38Q51.85 21.77 52.62 21.73L52.62 21.73L52.87 21.73Q53.04 21.73 53.16 21.85Q53.29 21.98 53.29 22.15L53.29 22.15L53.29 25.58Q53.29 25.75 53.16 25.88Q53.04 26 52.87 26L52.87 26L51.47 26Q48.91 26 47.62 25.14Q46.32 24.29 46.32 21.87L46.32 21.87L46.32 11.65Q46.32 11.47 46.15 11.47L46.15 11.47L44.99 11.47Q44.82 11.47 44.69 11.35Q44.57 11.23 44.57 11.05L44.57 11.05L44.57 8.43Q44.57 8.25 44.69 8.13Q44.82 8.01 44.99 8.01L44.99 8.01L46.15 8.01Q46.32 8.01 46.32 7.83L46.32 7.83L46.32 3.95Q46.32 3.77 46.44 3.65Q46.57 3.53 46.74 3.53L46.74 3.53L50.66 3.53Q50.84 3.53 50.96 3.65Q51.08 3.77 51.08 3.95L51.08 3.95L51.08 7.83Q51.08 8.01 51.26 8.01L51.26 8.01L53.22 8.01Q53.39 8.01 53.51 8.13Q53.64 8.25 53.64 8.43L53.64 8.43L53.64 11.05ZM63.68 7.80Q64.63 7.80 65.15 8.15L65.15 8.15Q65.43 8.32 65.36 8.67L65.36 8.67L64.70 12.77Q64.66 13.15 64.21 13.05L64.21 13.05Q63.82 12.91 63.26 12.91L63.26 12.91Q62.74 12.91 62.35 13.05L62.35 13.05Q61.55 13.19 61.06 14.01Q60.57 14.83 60.57 15.92L60.57 15.92L60.57 25.55Q60.57 25.72 60.44 25.84Q60.32 25.96 60.15 25.96L60.15 25.96L56.05 25.96Q55.88 25.96 55.75 25.84Q55.63 25.72 55.63 25.55L55.63 25.55L55.63 8.43Q55.63 8.25 55.75 8.13Q55.88 8.01 56.05 8.01L56.05 8.01L60.15 8.01Q60.32 8.01 60.44 8.13Q60.57 8.25 60.57 8.43L60.57 8.43L60.57 9.79Q60.57 9.93 60.62 9.95Q60.67 9.97 60.74 9.86L60.74 9.86Q61.69 7.80 63.68 7.80L63.68 7.80ZM69.45 5.98Q68.27 5.98 67.48 5.19Q66.69 4.40 66.69 3.21L66.69 3.21Q66.69 1.99 67.46 1.22Q68.23 0.45 69.45 0.45L69.45 0.45Q70.68 0.45 71.43 1.22Q72.19 1.99 72.19 3.21L72.19 3.21Q72.19 4.40 71.42 5.19Q70.64 5.98 69.45 5.98L69.45 5.98ZM67.46 26Q67.28 26 67.16 25.88Q67.04 25.75 67.04 25.58L67.04 25.58L67.04 8.43Q67.04 8.25 67.16 8.13Q67.28 8.01 67.46 8.01L67.46 8.01L71.56 8.01Q71.73 8.01 71.85 8.13Q71.97 8.25 71.97 8.43L71.97 8.43L71.97 25.58Q71.97 25.75 71.85 25.88Q71.73 26 71.56 26L71.56 26L67.46 26ZM81.01 26.28Q77.93 26.28 76.16 24.70Q74.39 23.13 74.39 20.40L74.39 20.40L74.39 13.61Q74.39 10.95 76.16 9.34Q77.93 7.73 81.01 7.73L81.01 7.73Q84.09 7.73 85.85 9.30Q87.62 10.88 87.62 13.40L87.62 13.40L87.62 14.03Q87.62 14.20 87.50 14.33Q87.38 14.45 87.20 14.45L87.20 14.45L83.11 14.62Q82.69 14.62 82.69 14.20L82.69 14.20L82.69 13.78Q82.69 13.01 82.21 12.49Q81.74 11.96 81.01 11.96L81.01 11.96Q80.24 11.96 79.78 12.52Q79.33 13.08 79.33 13.99L79.33 13.99L79.33 20.02Q79.33 20.93 79.78 21.48Q80.24 22.04 81.01 22.04L81.01 22.04Q81.74 22.04 82.21 21.50Q82.69 20.96 82.69 20.23L82.69 20.23L82.69 19.77Q82.69 19.59 82.81 19.47Q82.93 19.35 83.11 19.35L83.11 19.35L87.20 19.38Q87.38 19.38 87.50 19.51Q87.62 19.63 87.62 19.80L87.62 19.80L87.62 20.61Q87.62 23.20 85.85 24.74Q84.09 26.28 81.01 26.28L81.01 26.28ZM97.81 11.05Q97.81 11.23 97.68 11.35Q97.56 11.47 97.39 11.47L97.39 11.47L95.43 11.47Q95.25 11.47 95.25 11.65L95.25 11.65L95.25 19.98Q95.25 20.99 95.64 21.38Q96.02 21.77 96.79 21.73L96.79 21.73L97.04 21.73Q97.21 21.73 97.33 21.85Q97.46 21.98 97.46 22.15L97.46 22.15L97.46 25.58Q97.46 25.75 97.33 25.88Q97.21 26 97.04 26L97.04 26L95.64 26Q93.08 26 91.79 25.14Q90.49 24.29 90.49 21.87L90.49 21.87L90.49 11.65Q90.49 11.47 90.32 11.47L90.32 11.47L89.16 11.47Q88.99 11.47 88.86 11.35Q88.74 11.23 88.74 11.05L88.74 11.05L88.74 8.43Q88.74 8.25 88.86 8.13Q88.99 8.01 89.16 8.01L89.16 8.01L90.32 8.01Q90.49 8.01 90.49 7.83L90.49 7.83L90.49 3.95Q90.49 3.77 90.61 3.65Q90.74 3.53 90.91 3.53L90.91 3.53L94.83 3.53Q95.01 3.53 95.13 3.65Q95.25 3.77 95.25 3.95L95.25 3.95L95.25 7.83Q95.25 8.01 95.43 8.01L95.43 8.01L97.39 8.01Q97.56 8.01 97.68 8.13Q97.81 8.25 97.81 8.43L97.81 8.43L97.81 11.05Z"/></g>
        
      </svg>
    